<svg width="149" height="149" viewBox="0 0 149 149" fill="none" xmlns="http://www.w3.org/2000/svg">
<circle cx="74.5" cy="74.5" r="72" fill="#1A1A1A" stroke="white" stroke-width="5"/>
<path d="M30.5327 32.347V15H49.6729V32.347H73V50.2922H49.6729V144L30.5327 133V50.2922H9C9 50.2922 15.7788 35.7367 18.5701 32.347H30.5327Z" fill="white"/>
<path d="M75.7614 49V34.4545H77.5227V47.4375H84.2841V49H75.7614ZM91.358 49.2273C90.3068 49.2273 89.4001 48.9953 88.6378 48.5312C87.8802 48.0625 87.2955 47.4091 86.8835 46.571C86.4763 45.7282 86.2727 44.7481 86.2727 43.6307C86.2727 42.5133 86.4763 41.5284 86.8835 40.6761C87.2955 39.8191 87.8684 39.1515 88.6023 38.6733C89.3409 38.1903 90.2027 37.9489 91.1875 37.9489C91.7557 37.9489 92.3168 38.0436 92.8707 38.233C93.4247 38.4223 93.929 38.7301 94.3835 39.1562C94.8381 39.5777 95.2003 40.1364 95.4702 40.8324C95.7401 41.5284 95.875 42.3854 95.875 43.4034V44.1136H87.4659V42.6648H94.1705C94.1705 42.0492 94.0473 41.5 93.8011 41.017C93.5597 40.5341 93.214 40.1529 92.7642 39.8736C92.3191 39.5942 91.7936 39.4545 91.1875 39.4545C90.5199 39.4545 89.9422 39.6203 89.4545 39.9517C88.9716 40.2784 88.5999 40.7045 88.3395 41.2301C88.0791 41.7557 87.9489 42.3191 87.9489 42.9205V43.8864C87.9489 44.7102 88.0909 45.4086 88.375 45.9815C88.6638 46.5497 89.0639 46.983 89.5753 47.2812C90.0866 47.5748 90.6809 47.7216 91.358 47.7216C91.7983 47.7216 92.196 47.66 92.5511 47.5369C92.911 47.4091 93.2211 47.2197 93.4815 46.9688C93.742 46.7131 93.9432 46.3958 94.0852 46.017L95.7045 46.4716C95.5341 47.0208 95.2476 47.5038 94.8452 47.9205C94.4427 48.3324 93.9455 48.6544 93.3537 48.8864C92.7618 49.1136 92.0966 49.2273 91.358 49.2273ZM103.169 38.0909V39.5114H97.5156V38.0909H103.169ZM99.1634 35.4773H100.839V45.875C100.839 46.3485 100.908 46.7036 101.045 46.9403C101.188 47.1723 101.367 47.3286 101.585 47.4091C101.808 47.4848 102.042 47.5227 102.288 47.5227C102.473 47.5227 102.625 47.5133 102.743 47.4943C102.861 47.4706 102.956 47.4517 103.027 47.4375L103.368 48.9432C103.254 48.9858 103.096 49.0284 102.892 49.071C102.688 49.1184 102.43 49.142 102.118 49.142C101.644 49.142 101.18 49.0402 100.726 48.8366C100.276 48.633 99.902 48.3229 99.6037 47.9062C99.3101 47.4896 99.1634 46.964 99.1634 46.3295V35.4773Z" fill="#898991"/>
<path d="M55.1136 75V57.5455H57.2273V65.3182H66.5341V57.5455H68.6477V75H66.5341V67.1932H57.2273V75H55.1136ZM72.8793 75V57.5455H83.4134V59.4205H74.9929V65.3182H82.8679V67.1932H74.9929V73.125H83.5497V75H72.8793Z" fill="white"/>
<path d="M55.321 98V80.5455H62.5994C63.9063 80.5455 65 80.7301 65.8807 81.0994C66.767 81.4687 67.4318 81.9858 67.875 82.6506C68.3239 83.3153 68.5483 84.0852 68.5483 84.9602C68.5483 85.625 68.4091 86.2188 68.1307 86.7415C67.8523 87.2585 67.4688 87.6875 66.9801 88.0284C66.4915 88.3693 65.9261 88.608 65.2841 88.7443V88.9148C65.9886 88.9489 66.6392 89.1392 67.2358 89.4858C67.8381 89.8324 68.321 90.3153 68.6847 90.9347C69.0483 91.5483 69.2301 92.2756 69.2301 93.1165C69.2301 94.054 68.9915 94.892 68.5142 95.6307C68.0369 96.3636 67.3466 96.9432 66.4432 97.3693C65.5398 97.7898 64.4432 98 63.1534 98H55.321ZM59.5398 94.5994H62.1477C63.0625 94.5994 63.7358 94.4261 64.1676 94.0795C64.6051 93.733 64.8239 93.25 64.8239 92.6307C64.8239 92.1818 64.7188 91.7955 64.5085 91.4716C64.2983 91.142 64 90.8892 63.6136 90.7131C63.2273 90.5312 62.7642 90.4403 62.2244 90.4403H59.5398V94.5994ZM59.5398 87.7216H61.875C62.3352 87.7216 62.7443 87.6449 63.1023 87.4915C63.4602 87.3381 63.7386 87.1165 63.9375 86.8267C64.142 86.5369 64.2443 86.1875 64.2443 85.7784C64.2443 85.1932 64.0369 84.733 63.6222 84.3977C63.2074 84.0625 62.6477 83.8949 61.9432 83.8949H59.5398V87.7216ZM75.4773 80.5455V98H71.2585V80.5455H75.4773ZM78.1257 98V80.5455H85.4041C86.7109 80.5455 87.8047 80.7301 88.6854 81.0994C89.5717 81.4687 90.2365 81.9858 90.6797 82.6506C91.1286 83.3153 91.353 84.0852 91.353 84.9602C91.353 85.625 91.2138 86.2188 90.9354 86.7415C90.657 87.2585 90.2734 87.6875 89.7848 88.0284C89.2962 88.3693 88.7308 88.608 88.0888 88.7443V88.9148C88.7933 88.9489 89.4439 89.1392 90.0405 89.4858C90.6428 89.8324 91.1257 90.3153 91.4893 90.9347C91.853 91.5483 92.0348 92.2756 92.0348 93.1165C92.0348 94.054 91.7962 94.892 91.3189 95.6307C90.8416 96.3636 90.1513 96.9432 89.2479 97.3693C88.3445 97.7898 87.2479 98 85.9581 98H78.1257ZM82.3445 94.5994H84.9524C85.8672 94.5994 86.5405 94.4261 86.9723 94.0795C87.4098 93.733 87.6286 93.25 87.6286 92.6307C87.6286 92.1818 87.5234 91.7955 87.3132 91.4716C87.103 91.142 86.8047 90.8892 86.4183 90.7131C86.032 90.5312 85.5689 90.4403 85.0291 90.4403H82.3445V94.5994ZM82.3445 87.7216H84.6797C85.1399 87.7216 85.549 87.6449 85.907 87.4915C86.2649 87.3381 86.5433 87.1165 86.7422 86.8267C86.9467 86.5369 87.049 86.1875 87.049 85.7784C87.049 85.1932 86.8416 84.733 86.4268 84.3977C86.0121 84.0625 85.4524 83.8949 84.7479 83.8949H82.3445V87.7216ZM94.0632 98V80.5455H98.282V94.5739H105.543V98H94.0632ZM107.727 98V80.5455H119.898V83.9716H111.946V87.5511H119.276V90.9858H111.946V94.5739H119.898V98H107.727Z" fill="#F7C571"/>
<path d="M62.4773 108.364C62.4773 107.739 62.2708 107.265 61.858 106.943C61.4451 106.617 60.8864 106.455 60.1818 106.455C59.6667 106.455 59.2027 106.538 58.7898 106.705C58.3769 106.871 58.0398 107.1 57.7784 107.392C57.517 107.684 57.3561 108.015 57.2955 108.386C57.2462 108.697 57.2784 108.964 57.392 109.188C57.5057 109.407 57.6667 109.591 57.875 109.739C58.0871 109.883 58.3144 110.002 58.5568 110.097C58.7992 110.187 59.0227 110.261 59.2273 110.318L60.3636 110.636C60.6477 110.716 60.964 110.826 61.3125 110.966C61.661 111.106 61.9867 111.297 62.2898 111.54C62.5928 111.778 62.8239 112.085 62.983 112.46C63.1458 112.835 63.1818 113.295 63.0909 113.841C62.9848 114.47 62.7254 115.038 62.3125 115.545C61.9034 116.053 61.3617 116.456 60.6875 116.756C60.017 117.055 59.2348 117.205 58.3409 117.205C57.5076 117.205 56.8068 117.07 56.2386 116.801C55.6742 116.532 55.2576 116.157 54.9886 115.676C54.7235 115.195 54.6212 114.636 54.6818 114H56.1364C56.0985 114.439 56.1856 114.803 56.3977 115.091C56.6098 115.375 56.9053 115.587 57.2841 115.727C57.6629 115.864 58.0833 115.932 58.5455 115.932C59.0833 115.932 59.5795 115.845 60.0341 115.67C60.4924 115.492 60.8712 115.246 61.1705 114.932C61.4735 114.614 61.6591 114.242 61.7273 113.818C61.7955 113.432 61.7424 113.117 61.5682 112.875C61.3939 112.633 61.142 112.436 60.8125 112.284C60.483 112.133 60.1212 112 59.7273 111.886L58.3636 111.477C57.5 111.216 56.8428 110.843 56.392 110.358C55.9451 109.873 55.7841 109.239 55.9091 108.455C56.0227 107.803 56.2973 107.235 56.733 106.75C57.1686 106.261 57.7083 105.883 58.3523 105.614C58.9962 105.341 59.6894 105.205 60.4318 105.205C61.1818 105.205 61.8239 105.341 62.358 105.614C62.892 105.883 63.2898 106.256 63.5511 106.733C63.8125 107.206 63.9091 107.75 63.8409 108.364H62.4773ZM64.1577 120.273L66.169 108.273H67.4645L67.2372 109.659H67.3963C67.5175 109.508 67.6842 109.314 67.8963 109.08C68.1122 108.841 68.402 108.629 68.7656 108.443C69.133 108.254 69.6009 108.159 70.169 108.159C70.9039 108.159 71.5194 108.343 72.0156 108.71C72.5118 109.078 72.8622 109.598 73.0668 110.273C73.2713 110.947 73.2978 111.742 73.1463 112.659C72.9948 113.583 72.705 114.384 72.277 115.062C71.849 115.737 71.3262 116.259 70.7088 116.631C70.0914 116.998 69.419 117.182 68.6918 117.182C68.1312 117.182 67.6974 117.089 67.3906 116.903C67.0838 116.714 66.8603 116.5 66.7202 116.261C66.58 116.019 66.4721 115.818 66.3963 115.659H66.2827L65.5099 120.273H64.1577ZM66.7599 112.636C66.6539 113.295 66.6539 113.877 66.7599 114.381C66.8698 114.881 67.0876 115.273 67.4134 115.557C67.7429 115.837 68.1766 115.977 68.7145 115.977C69.2751 115.977 69.7656 115.83 70.1861 115.534C70.6103 115.235 70.9588 114.833 71.2315 114.33C71.508 113.822 71.6993 113.258 71.8054 112.636C71.9039 112.023 71.9001 111.47 71.794 110.977C71.688 110.481 71.4721 110.089 71.1463 109.801C70.8205 109.509 70.3736 109.364 69.8054 109.364C69.2599 109.364 68.777 109.502 68.3565 109.778C67.9399 110.051 67.5952 110.434 67.3224 110.926C67.0535 111.415 66.866 111.985 66.7599 112.636ZM78.1051 117.182C77.268 117.182 76.5767 116.996 76.0312 116.625C75.4858 116.25 75.1051 115.727 74.8892 115.057C74.6733 114.383 74.6392 113.598 74.7869 112.705C74.9347 111.811 75.2282 111.023 75.6676 110.341C76.107 109.655 76.6544 109.121 77.3097 108.739C77.965 108.352 78.6847 108.159 79.4688 108.159C79.9233 108.159 80.3608 108.235 80.7812 108.386C81.2017 108.538 81.5653 108.784 81.8722 109.125C82.179 109.462 82.393 109.909 82.5142 110.466C82.6354 111.023 82.6278 111.708 82.4915 112.523L82.4006 113.091H75.6733L75.8551 111.932H81.2188C81.3059 111.439 81.2831 111 81.1506 110.614C81.0218 110.227 80.7964 109.922 80.4744 109.699C80.1563 109.475 79.7528 109.364 79.2642 109.364C78.7604 109.364 78.2907 109.5 77.8551 109.773C77.4195 110.042 77.0559 110.383 76.7642 110.795C76.4725 111.205 76.2907 111.621 76.2188 112.045L76.0597 113.045C75.946 113.769 75.9631 114.345 76.1108 114.773C76.2623 115.201 76.5256 115.509 76.9006 115.699C77.2756 115.884 77.7453 115.977 78.3097 115.977C78.6695 115.977 79.0009 115.928 79.304 115.83C79.607 115.727 79.8778 115.576 80.1165 115.375C80.3551 115.17 80.5559 114.917 80.7188 114.614L81.946 114.977C81.7377 115.417 81.4441 115.803 81.0653 116.136C80.6903 116.466 80.2509 116.723 79.7472 116.909C79.2472 117.091 78.6998 117.182 78.1051 117.182ZM86.358 117.205C85.8049 117.205 85.3201 117.1 84.9034 116.892C84.4867 116.68 84.178 116.375 83.9773 115.977C83.7765 115.576 83.7216 115.091 83.8125 114.523C83.8996 114.023 84.0682 113.617 84.3182 113.307C84.5682 112.992 84.8712 112.746 85.2273 112.568C85.5871 112.386 85.9735 112.252 86.3864 112.165C86.803 112.074 87.2178 112.004 87.6307 111.955C88.1686 111.886 88.6061 111.833 88.9432 111.795C89.2803 111.758 89.5341 111.695 89.7045 111.608C89.875 111.521 89.9792 111.371 90.017 111.159V111.114C90.108 110.557 90.0341 110.123 89.7955 109.812C89.5568 109.498 89.1307 109.341 88.517 109.341C87.8807 109.341 87.3485 109.481 86.9205 109.761C86.4924 110.042 86.1761 110.341 85.9716 110.659L84.7898 110.205C85.1004 109.674 85.4716 109.261 85.9034 108.966C86.3352 108.667 86.7879 108.458 87.2614 108.341C87.7348 108.22 88.1913 108.159 88.6307 108.159C88.911 108.159 89.2273 108.193 89.5795 108.261C89.9318 108.326 90.2614 108.46 90.5682 108.665C90.8788 108.869 91.1117 109.178 91.267 109.591C91.4261 110.004 91.4489 110.557 91.3352 111.25L90.3807 117H89.0398L89.2443 115.818H89.1761C89.0549 116.008 88.8693 116.21 88.6193 116.426C88.3731 116.642 88.0606 116.826 87.6818 116.977C87.3068 117.129 86.8655 117.205 86.358 117.205ZM86.7443 116C87.2746 116 87.7386 115.896 88.1364 115.688C88.5379 115.479 88.8598 115.21 89.1023 114.881C89.3485 114.551 89.5019 114.205 89.5625 113.841L89.767 112.614C89.6989 112.682 89.5644 112.744 89.3636 112.801C89.1629 112.854 88.9356 112.902 88.6818 112.943C88.4318 112.981 88.1875 113.015 87.9489 113.045C87.714 113.072 87.5246 113.095 87.3807 113.114C87.0246 113.159 86.6856 113.233 86.3636 113.335C86.0455 113.434 85.7765 113.583 85.5568 113.784C85.3409 113.981 85.2064 114.25 85.1534 114.591C85.0739 115.057 85.1856 115.409 85.4886 115.648C85.7917 115.883 86.2102 116 86.7443 116ZM94.6009 113.818L94.8509 112.159H95.1236L99.6009 108.273H101.26L96.5099 112.386H96.3963L94.6009 113.818ZM92.8281 117L94.7599 105.364H96.1009L94.169 117H92.8281ZM98.3736 117L95.6918 112.682L96.7827 111.75L100.078 117H98.3736Z" fill="#8F9095"/>
</svg>
